<svg xmlns="http://www.w3.org/2000/svg" xmlns:xlink="http://www.w3.org/1999/xlink" width="500" zoomAndPan="magnify" viewBox="0 0 375 374.999991" height="500" preserveAspectRatio="xMidYMid meet" version="1.0"><defs><clipPath id="27f30a4047"><path d="M 99 91.609375 L 259.433594 91.609375 L 259.433594 297.859375 L 99 297.859375 Z M 99 91.609375 " clip-rule="nonzero"/></clipPath><clipPath id="b39f85bbf5"><path d="M 161.097656 194.683594 L 205.347656 194.683594 L 205.347656 280.183594 L 161.097656 280.183594 Z M 161.097656 194.683594 " clip-rule="nonzero"/></clipPath></defs><rect x="-37.5" width="450" fill="#ffffff" y="-37.499999" height="449.999989" fill-opacity="1"/><rect x="-37.5" width="450" fill="#ffffff" y="-37.499999" height="449.999989" fill-opacity="1"/><rect x="-37.5" width="450" fill="#ffffff" y="-37.499999" height="449.999989" fill-opacity="1"/><g clip-path="url(#27f30a4047)"><path fill="#e4e0e0" d="M 259.011719 141.753906 C 259.433594 132.820312 257.359375 124.785156 252.875 117.851562 C 248.816406 111.605469 242.730469 106.398438 234.78125 102.34375 C 230.910156 100.386719 226.523438 98.664062 221.757812 97.226562 C 217.039062 95.8125 211.800781 94.636719 206.234375 93.761719 C 194.695312 91.902344 184.363281 91.6875 179.21875 91.710938 C 174.054688 91.6875 163.71875 91.902344 152.160156 93.738281 C 146.566406 94.636719 141.332031 95.789062 136.636719 97.203125 C 131.871094 98.640625 127.480469 100.363281 123.613281 102.34375 C 115.660156 106.398438 109.574219 111.605469 105.515625 117.851562 C 101.011719 124.785156 98.933594 132.820312 99.382812 141.753906 C 99.714844 148.734375 101.578125 156.25 104.925781 164.101562 C 108.9375 173.554688 114.152344 181.261719 117.125 185.339844 C 106.226562 198.351562 99.714844 214.851562 99.714844 232.8125 C 99.714844 257.5625 112.074219 279.554688 131.210938 293.464844 C 135.101562 296.292969 139.773438 297.777344 144.5625 297.777344 L 213.925781 297.777344 C 218.714844 297.777344 223.410156 296.269531 227.277344 293.464844 C 246.433594 279.554688 258.796875 257.5625 258.796875 232.8125 C 258.796875 214.804688 252.261719 198.28125 241.339844 185.246094 C 244.335938 181.167969 249.503906 173.484375 253.488281 164.101562 C 256.816406 156.226562 258.679688 148.707031 259.011719 141.753906 Z M 179.242188 156.722656 C 162.917969 156.722656 147.746094 161.4375 135.125 169.5 C 132.933594 166.339844 129.816406 161.4375 127.292969 155.851562 C 123.917969 148.355469 120.898438 137.9375 125.5 130.816406 C 127.433594 127.824219 130.902344 125.160156 135.761719 122.898438 C 140.976562 120.46875 147.675781 118.585938 155.675781 117.3125 C 162.375 116.226562 168.769531 115.800781 173.320312 115.636719 L 173.320312 115.707031 L 177.261719 115.566406 C 177.332031 115.566406 178.015625 115.542969 179.171875 115.542969 C 180.375 115.542969 181.058594 115.566406 181.058594 115.566406 L 185.023438 115.707031 L 185.023438 115.636719 C 189.578125 115.800781 195.972656 116.226562 202.671875 117.3125 C 210.644531 118.609375 217.347656 120.46875 222.582031 122.898438 C 227.445312 125.160156 230.910156 127.824219 232.847656 130.816406 C 237.46875 137.9375 234.425781 148.355469 231.054688 155.851562 C 228.550781 161.414062 225.460938 166.269531 223.265625 169.429688 C 210.691406 161.414062 195.546875 156.722656 179.242188 156.722656 Z M 179.242188 156.722656 " fill-opacity="1" fill-rule="nonzero"/></g><g clip-path="url(#b39f85bbf5)"><path fill="#ffffff" d="M 167.820312 197.546875 C 167.660156 199.375 167.546875 201.835938 167.484375 204.929688 C 167.425781 208.027344 167.480469 211.261719 167.652344 214.636719 C 167.703125 216.40625 167.816406 218.179688 167.988281 219.953125 C 168.089844 221.625 168.28125 223.289062 168.5625 224.9375 C 168.949219 227.878906 169.527344 230.371094 170.308594 232.414062 C 171.085938 234.460938 172.082031 235.53125 173.292969 235.632812 C 174.890625 235.785156 176.40625 234.347656 177.851562 231.316406 C 179.296875 228.128906 180.453125 224.835938 181.316406 221.445312 C 181.925781 219.007812 182.394531 216.738281 182.730469 214.636719 C 183.0625 212.535156 183.195312 210.90625 183.125 209.757812 C 183.0625 207.597656 183.917969 206.742188 185.6875 207.1875 C 187.457031 207.636719 188.507812 208.714844 188.839844 210.425781 C 189.667969 217.394531 190.25 224.777344 190.585938 232.578125 L 190.585938 233.558594 C 192.984375 231.464844 195.242188 229.308594 197.359375 227.09375 C 200.042969 224.398438 202.082031 221.277344 203.476562 217.730469 C 203.871094 217.785156 204.488281 217.839844 205.3125 217.898438 C 204.199219 220.976562 202.609375 223.785156 200.539062 226.320312 C 198.378906 228.84375 196.089844 231.246094 193.671875 233.523438 L 190.652344 236.179688 C 190.773438 242.394531 190.4375 248.582031 189.644531 254.742188 C 189.171875 258.363281 188.449219 261.925781 187.46875 265.441406 C 186.53125 268.652344 185.25 271.714844 183.621094 274.632812 C 181.898438 277.664062 179.335938 279.457031 175.933594 280.011719 C 175.347656 280.121094 174.761719 280.175781 174.167969 280.179688 C 171.652344 280.179688 169.589844 279.183594 167.976562 277.1875 C 166.914062 275.863281 166.242188 274.09375 165.96875 271.875 C 165.695312 269.660156 165.976562 266.921875 166.820312 263.667969 C 167.996094 259.582031 169.617188 255.992188 171.679688 252.898438 C 173.679688 249.820312 175.964844 246.972656 178.539062 244.351562 C 180.152344 242.691406 181.828125 241.121094 183.566406 239.636719 L 184.652344 238.722656 L 184.652344 238.300781 C 184.652344 233.777344 184.542969 229.554688 184.320312 225.636719 C 184.097656 221.71875 183.878906 218.65625 183.65625 216.449219 C 183.65625 217.058594 183.410156 218.300781 182.914062 220.175781 C 182.417969 222.304688 181.808594 224.398438 181.09375 226.464844 C 180.164062 229.039062 178.984375 231.492188 177.550781 233.824219 C 176.167969 236.085938 174.683594 237.140625 173.09375 236.976562 C 171.21875 236.832031 169.597656 236.113281 168.226562 234.824219 C 166.8125 233.429688 165.683594 231.832031 164.839844 230.03125 C 164.03125 228.324219 163.402344 226.554688 162.945312 224.722656 C 162.445312 222.726562 162.0625 220.710938 161.804688 218.671875 C 161.355469 215.128906 161.128906 211.566406 161.121094 207.992188 L 161.121094 206.882812 C 161.171875 202.902344 161.339844 199.554688 161.625 196.835938 C 161.847656 195.402344 162.5625 194.683594 163.773438 194.683594 C 164.082031 194.683594 164.382812 194.707031 164.6875 194.757812 C 166.394531 195.230469 167.4375 196.160156 167.820312 197.546875 Z M 183.523438 242.570312 C 180.375 245.507812 177.484375 248.683594 174.851562 252.097656 C 172.210938 255.578125 170.25 259.640625 168.980469 264.28125 C 168.203125 266.992188 167.84375 269.3125 167.90625 271.246094 C 167.964844 273.179688 168.269531 274.695312 168.816406 275.792969 C 169.917969 277.890625 171.597656 278.609375 173.855469 277.949219 C 176.117188 277.292969 178.074219 275.386719 179.730469 272.230469 C 180.890625 269.859375 181.824219 267.011719 182.539062 263.6875 C 183.28125 260.210938 183.808594 256.699219 184.117188 253.15625 C 184.335938 250.667969 184.503906 248.179688 184.613281 245.6875 C 184.613281 244.253906 184.640625 242.816406 184.691406 241.382812 Z M 183.523438 242.570312 " fill-opacity="1" fill-rule="nonzero"/></g></svg>